<svg xmlns="http://www.w3.org/2000/svg"
 xmlns:xlink="http://www.w3.org/1999/xlink"
 width="50px" height="37px"  viewBox="0 0 50 37">
<path fill-rule="evenodd"  fill="#f16d7f"
 d="M43.39258,9.531738 C40.829834,9.531738 38.74646,11.566406 38.74646,14.064453 C38.74646,15.404419 39.354126,16.598999 40.30591,17.429688 C40.30591,17.429688 34.446045,19.485107 34.446045,19.485107 C34.446045,19.485107 26.106934,9.802612 26.106934,9.802612 C27.904785,9.17627 29.20398,7.515991 29.20398,5.5458984 C29.20398,3.0462646 27.120605,1.010376 24.558472,1.010376 C21.999146,1.010376 19.913574,3.0462646 19.913574,5.5458984 C19.913574,7.496582 21.189941,9.146973 22.958496,9.788208 C22.958496,9.788208 14.606079,19.485107 14.606079,19.485107 C14.606079,19.485107 8.748169,17.429688 8.748169,17.429688 C9.699463,16.598999 10.306274,15.404419 10.306274,14.064453 C10.306274,11.566406 8.223145,9.531738 5.661621,9.531738 C3.1016846,9.531738 1.0153809,11.566406 1.0153809,14.064453 C1.0153809,16.193115 2.5335693,17.972656 4.5617676,18.458008 C4.5617676,18.458008 4.5617676,30.748291 4.5617676,30.748291 C4.5617676,30.834473 4.593384,30.907715 4.6118164,30.989502 C4.5802,31.113037 4.5617676,31.242188 4.5617676,31.377197 C4.5617676,35.789307 22.48108,35.9187 24.523804,35.9187 C26.564331,35.9187 44.485718,35.789307 44.485718,31.377197 C44.485718,31.242188 44.466675,31.113037 44.43579,30.989502 C44.457886,30.907715 44.485718,30.834473 44.485718,30.748291 C44.485718,30.748291 44.485718,18.458008 44.485718,18.458008 C46.5177,17.972656 48.03296,16.193115 48.03296,14.064453 C48.03601,11.566406 45.95276,9.531738 43.39258,9.531738 ZM22.173584,5.5477295 C22.173584,4.26355 23.244629,3.2180176 24.559814,3.2180176 C25.872803,3.2180176 26.94397,4.26355 26.94397,5.5477295 C26.94397,6.831543 25.872803,7.8756104 24.559814,7.8756104 C23.244629,7.8756104 22.173584,6.831543 22.173584,5.5477295 ZM14.583374,21.823242 C15.026001,21.975586 15.524902,21.846191 15.829468,21.493164 C15.829468,21.493164 24.525269,11.393921 24.525269,11.393921 C24.525269,11.393921 33.223267,21.493164 33.223267,21.493164 C33.52649,21.846191 34.02368,21.975586 34.468018,21.824707 C34.468018,21.824707 42.225952,19.099365 42.225952,19.099365 C42.225952,19.099365 42.225952,29.036133 42.225952,29.036133 C37.34131,26.91455 26.117188,26.835938 24.523804,26.835938 C22.931274,26.835938 11.704834,26.91455 6.821533,29.036133 C6.821533,29.036133 6.821533,19.098145 6.821533,19.098145 C6.821533,19.098145 14.583374,21.823242 14.583374,21.823242 ZM24.526855,33.71289 C15.8220215,33.71289 10.27771,32.70166 7.9699707,31.851318 C7.5161133,31.68457 7.177002,31.519531 6.973877,31.377197 C7.6955566,30.856201 10.03479,30.144775 13.940308,29.645508 C16.693848,29.291748 20.21814,29.041992 24.526855,29.041992 C28.83606,29.041992 32.361206,29.291748 35.115356,29.645508 C39.02002,30.144775 41.36084,30.856201 42.080322,31.377197 C41.87732,31.523682 41.53894,31.68457 41.085815,31.851318 C38.778687,32.70166 33.235107,33.71289 24.526855,33.71289 ZM3.279541,14.064453 C3.279541,12.781982 4.350708,11.737915 5.6660156,11.737915 C6.9813232,11.737915 8.050781,12.781982 8.050781,14.064453 C8.050781,15.348633 6.9813232,16.394165 5.6660156,16.394165 C4.350708,16.394165 3.279541,15.348633 3.279541,14.064453 ZM43.39258,16.394165 C42.077393,16.394165 41.006348,15.348633 41.006348,14.064453 C41.006348,12.781982 42.077393,11.737915 43.39258,11.737915 C44.704956,11.737915 45.779053,12.781982 45.779053,14.064453 C45.776123,15.348633 44.704956,16.394165 43.39258,16.394165 Z"/>
</svg>