<svg xmlns="http://www.w3.org/2000/svg"
 xmlns:xlink="http://www.w3.org/1999/xlink"
 width="48px" height="35px"  viewBox="0 0 48 35">
<path fill-rule="evenodd"  fill="#f16d7f"
 d="M12.137207,27.361816 C11.62442,27.361816 11.208801,27.781982 11.208801,28.300049 C11.208801,28.797363 10.808746,29.202148 10.3168335,29.202148 C9.824738,29.202148 9.424377,28.797363 9.424377,28.300049 C9.424377,27.802979 9.824738,27.398682 10.3168335,27.398682 C10.829529,27.398682 11.245148,26.978516 11.245148,26.46045 C11.245148,25.942383 10.829529,25.52246 10.3168335,25.52246 C8.801056,25.52246 7.567871,26.76831 7.567871,28.300049 C7.567871,29.831787 8.801056,31.078125 10.3168335,31.078125 C11.832336,31.078125 13.06543,29.831787 13.06543,28.300049 C13.06543,27.781738 12.649811,27.361816 12.137207,27.361816 ZM38.60083,27.361816 C38.088135,27.361816 37.672516,27.781982 37.672516,28.300049 C37.672516,28.797363 37.27234,29.202148 36.78055,29.202148 C36.28833,29.202148 35.888,28.797363 35.888,28.300049 C35.888,27.802979 36.28833,27.398682 36.78055,27.398682 C37.29315,27.398682 37.70883,26.978516 37.70883,26.46045 C37.70883,25.942383 37.29315,25.52246 36.78055,25.52246 C35.26468,25.52246 34.031464,26.76831 34.031464,28.300049 C34.031464,29.831787 35.26468,31.078125 36.78055,31.078125 C38.29602,31.078125 39.529022,29.831787 39.529022,28.300049 C39.529022,27.781738 39.113403,27.361816 38.60083,27.361816 ZM45.887756,15.36499 C45.887756,15.36499 42.328735,9.27124 42.328735,9.27124 C41.108215,7.213135 39.95645,6.0113525 37.651154,5.8082275 C37.57553,5.787964 37.496094,5.7773438 37.414154,5.7773438 C37.414154,5.7773438 30.293549,5.7773438 30.293549,5.7773438 C30.293549,5.7773438 30.293549,3.8718262 30.293549,3.8718262 C30.293549,2.8372803 29.460602,1.9956055 28.437042,1.9956055 C28.437042,1.9956055 2.8864746,1.9956055 2.8864746,1.9956055 C1.8628845,1.9956055 1.0299683,2.8372803 1.0299683,3.8718262 C1.0299683,3.8718262 1.0299683,27.361816 1.0299683,27.361816 C1.0299683,28.396729 1.8628845,29.238281 2.8864746,29.238281 C2.8864746,29.238281 4.823303,29.238281 4.823303,29.238281 C5.2669373,31.898193 7.560913,33.93164 10.31723,33.93164 C13.072968,33.93164 15.366364,31.898193 15.809906,29.238281 C15.809906,29.238281 31.286987,29.238281 31.286987,29.238281 C31.73053,31.898193 34.024506,33.93164 36.780914,33.93164 C39.53656,33.93164 41.830048,31.898193 42.2735,29.238281 C42.2735,29.238281 45.088287,29.238281 45.088287,29.238281 C45.60089,29.238281 46.0166,28.818115 46.0166,28.300049 C46.0166,28.300049 46.0166,15.841797 46.0166,15.841797 C46.0166,15.674194 45.972046,15.5095215 45.887756,15.36499 ZM42.352478,18.959717 C42.352478,18.442383 42.76895,18.021729 43.280792,18.021729 C43.280792,18.021729 44.159973,18.021729 44.159973,18.021729 C44.159973,18.021729 44.159973,19.868408 44.159973,19.868408 C44.159973,19.868408 42.352478,19.868408 42.352478,19.868408 C42.352478,19.868408 42.352478,18.959717 42.352478,18.959717 ZM43.60321,15.144897 C43.60321,15.144897 35.07556,15.144897 35.07556,15.144897 C35.014435,15.13208 34.95102,15.125488 34.88617,15.125488 C34.363922,15.125488 33.939056,14.695801 33.939056,14.167969 C33.939056,14.167969 33.939056,10.40918 33.939056,10.40918 C33.939056,10.40918 40.837463,10.40918 40.837463,10.40918 C40.837463,10.40918 43.60321,15.144897 43.60321,15.144897 ZM2.8864746,3.8718262 C2.8864746,3.8718262 28.437042,3.8718262 28.437042,3.8718262 C28.437042,3.8718262 28.437042,27.361816 28.437042,27.361816 C28.437042,27.361816 15.809998,27.361816 15.809998,27.361816 C15.36673,24.702148 13.073151,22.668701 10.31723,22.668701 C7.560608,22.668701 5.266571,24.702148 4.823181,27.361816 C4.823181,27.361816 2.8864746,27.361816 2.8864746,27.361816 C2.8864746,27.361816 2.8864746,3.8718262 2.8864746,3.8718262 ZM10.31723,32.055176 C8.268158,32.055176 6.6011353,30.370605 6.6011353,28.299805 C6.6011353,26.229736 8.268158,24.544678 10.31723,24.544678 C12.365601,24.544678 14.032257,26.229736 14.032257,28.299805 C14.032257,30.370605 12.365601,32.055176 10.31723,32.055176 ZM36.780914,32.055176 C34.73175,32.055176 33.064728,30.370605 33.064728,28.299805 C33.064728,26.229736 34.73175,24.544678 36.780914,24.544678 C38.829224,24.544678 40.49585,26.229736 40.49585,28.299805 C40.49585,30.370605 38.829315,32.055176 36.780914,32.055176 ZM42.27362,27.361816 C41.830444,24.702148 39.536743,22.668701 36.780914,22.668701 C34.02423,22.668701 31.730164,24.702148 31.286896,27.361816 C31.286896,27.361816 30.293549,27.361816 30.293549,27.361816 C30.293549,27.361816 30.293549,7.6535645 30.293549,7.6535645 C30.293549,7.6535645 36.91626,7.6535645 36.91626,7.6535645 C38.100983,7.6535645 38.84085,7.905884 39.49356,8.532959 C39.49356,8.532959 33.010742,8.532959 33.010742,8.532959 C32.49817,8.532959 32.08246,8.953125 32.08246,9.471313 C32.08246,9.471313 32.08246,14.167969 32.08246,14.167969 C32.08246,15.652466 33.217407,16.873657 34.65622,16.992188 C34.729767,17.010986 34.806824,17.021118 34.88617,17.021118 C34.88617,17.021118 41.2648,17.021118 41.2648,17.021118 C40.78882,17.526245 40.49585,18.20874 40.49585,18.959473 C40.49585,18.959473 40.49585,20.80664 40.49585,20.80664 C40.49585,21.324463 40.91156,21.744385 41.424164,21.744385 C41.424164,21.744385 44.159973,21.744385 44.159973,21.744385 C44.159973,21.744385 44.159973,27.361816 44.159973,27.361816 C44.159973,27.361816 42.27362,27.361816 42.27362,27.361816 C42.27362,27.361816 42.27362,27.361816 42.27362,27.361816 ZM5.7101135,7.6535645 C5.7101135,7.6535645 25.613403,7.6535645 25.613403,7.6535645 C26.126099,7.6535645 26.54181,7.2336426 26.54181,6.715332 C26.54181,6.1972656 26.126099,5.7773438 25.613403,5.7773438 C25.613403,5.7773438 5.7101135,5.7773438 5.7101135,5.7773438 C5.197418,5.7773438 4.781708,6.1972656 4.781708,6.715332 C4.781708,7.2336426 5.197418,7.6535645 5.7101135,7.6535645 Z"/>
</svg>