<svg xmlns="http://www.w3.org/2000/svg"
 xmlns:xlink="http://www.w3.org/1999/xlink"
 width="42px" height="43px"  viewBox="0 0 42 43">
<path fill-rule="evenodd"  fill="#f16d7f"
 d="M25.77649,20.461914 C23.882751,20.461914 22.317993,22.0896 22.317993,25.016113 C22.338501,27.91919 23.882751,29.368652 25.665405,29.368652 C27.495117,29.368652 29.080322,27.85083 29.080322,24.79126 C29.081177,22.024658 27.782043,20.461914 25.77649,20.461914 ZM25.710693,28.186035 C24.520874,28.186035 23.816101,26.779785 23.838318,24.927734 C23.838318,23.09668 24.499512,21.645752 25.710693,21.645752 C27.053467,21.645752 27.559937,23.118408 27.559937,24.883545 C27.559937,26.80127 26.98767,28.186035 25.710693,28.186035 ZM19.763306,18.786621 C19.763306,16.019165 18.441772,14.454834 16.437134,14.454834 C14.542603,14.454834 12.979492,16.085815 12.979492,18.987305 C13.001709,21.911133 14.543457,23.362549 16.327026,23.362549 C18.177856,23.362549 19.763306,21.844727 19.763306,18.786621 ZM14.52124,18.92163 C14.52124,17.089478 15.161865,15.639038 16.371338,15.639038 C17.714966,15.639038 18.221497,17.112305 18.221497,18.877441 C18.221497,20.796143 17.648315,22.180664 16.371338,22.180664 C15.161865,22.178955 14.476868,20.77246 14.52124,18.92163 ZM24.608887,14.610474 C24.608887,14.610474 16.194519,29.32959 16.194519,29.32959 C16.194519,29.32959 17.427063,29.32959 17.427063,29.32959 C17.427063,29.32959 25.842163,14.610474 25.842163,14.610474 C25.842163,14.610474 24.608887,14.610474 24.608887,14.610474 ZM37.575806,24.924316 C37.575806,24.924316 40.987305,21.956299 40.987305,21.956299 C40.987305,21.956299 37.575806,18.9917 37.575806,18.9917 C37.575806,18.9917 39.78546,15.025391 39.78546,15.025391 C39.78546,15.025391 35.577026,13.425415 35.577026,13.425415 C35.577026,13.425415 36.30902,8.930908 36.30902,8.930908 C36.30902,8.930908 31.815308,8.885742 31.815308,8.885742 C31.815308,8.885742 30.994507,4.4051514 30.994507,4.4051514 C30.994507,4.4051514 26.754456,5.916748 26.754456,5.916748 C26.754456,5.916748 24.466248,1.9956055 24.466248,1.9956055 C24.466248,1.9956055 20.994873,4.8934326 20.994873,4.8934326 C20.994873,4.8934326 17.52356,1.9956055 17.52356,1.9956055 C17.52356,1.9956055 15.235352,5.9160156 15.235352,5.9160156 C15.235352,5.9160156 10.996155,4.404541 10.996155,4.404541 C10.996155,4.404541 10.174377,8.884766 10.174377,8.884766 C10.174377,8.884766 5.6798706,8.928955 5.6798706,8.928955 C5.6798706,8.928955 6.4127197,13.423584 6.4127197,13.423584 C6.4127197,13.423584 2.2034912,15.023682 2.2034912,15.023682 C2.2034912,15.023682 4.413147,18.989258 4.413147,18.989258 C4.413147,18.989258 1.001648,21.956299 1.001648,21.956299 C1.001648,21.956299 4.413147,24.922607 4.413147,24.922607 C4.413147,24.922607 2.2034912,28.888916 2.2034912,28.888916 C2.2034912,28.888916 6.411865,30.487549 6.411865,30.487549 C6.411865,30.487549 5.6798706,34.98462 5.6798706,34.98462 C5.6798706,34.98462 10.173523,35.02954 10.173523,35.02954 C10.173523,35.02954 10.994446,39.509766 10.994446,39.509766 C10.994446,39.509766 15.234497,37.99756 15.234497,37.99756 C15.234497,37.99756 17.522705,41.9187 17.522705,41.9187 C17.522705,41.9187 20.994019,39.020996 20.994019,39.020996 C20.994019,39.020996 24.464478,41.9187 24.464478,41.9187 C24.464478,41.9187 26.752747,37.99756 26.752747,37.99756 C26.752747,37.99756 30.991943,39.510498 30.991943,39.510498 C30.991943,39.510498 31.812866,35.030273 31.812866,35.030273 C31.812866,35.030273 36.307312,34.98462 36.307312,34.98462 C36.307312,34.98462 35.574524,30.490723 35.574524,30.490723 C35.574524,30.490723 39.783752,28.889893 39.783752,28.889893 C39.783752,28.889893 37.575806,24.924316 37.575806,24.924316 ZM34.910767,28.690918 C34.910767,28.690918 33.451843,29.245605 33.451843,29.245605 C33.451843,29.245605 33.705627,30.804932 33.705627,30.804932 C33.705627,30.804932 34.07715,33.087402 34.07715,33.087402 C34.07715,33.087402 31.795715,33.10913 31.795715,33.10913 C31.795715,33.10913 30.235168,33.125244 30.235168,33.125244 C30.235168,33.125244 29.949951,34.680664 29.949951,34.680664 C29.949951,34.680664 29.53302,36.95337 29.53302,36.95337 C29.53302,36.95337 27.382263,36.185303 27.382263,36.185303 C27.382263,36.185303 25.914001,35.662354 25.914001,35.662354 C25.914001,35.662354 25.122253,37.019043 25.122253,37.019043 C25.122253,37.019043 23.961365,39.00879 23.961365,39.00879 C23.961365,39.00879 22.200073,37.537598 22.200073,37.537598 C22.200073,37.537598 20.994019,36.53247 20.994019,36.53247 C20.994019,36.53247 19.788818,37.537598 19.788818,37.537598 C19.788818,37.537598 18.027466,39.00879 18.027466,39.00879 C18.027466,39.00879 16.865906,37.019043 16.865906,37.019043 C16.865906,37.019043 16.073242,35.66162 16.073242,35.66162 C16.073242,35.66162 14.604919,36.18457 14.604919,36.18457 C14.604919,36.18457 12.452515,36.95166 12.452515,36.95166 C12.452515,36.95166 12.036499,34.67871 12.036499,34.67871 C12.036499,34.67871 11.75116,33.123535 11.75116,33.123535 C11.75116,33.123535 10.190674,33.10742 10.190674,33.10742 C10.190674,33.10742 7.9091797,33.084717 7.9091797,33.084717 C7.9091797,33.084717 8.280762,30.800781 8.280762,30.800781 C8.280762,30.800781 8.5354,29.241455 8.5354,29.241455 C8.5354,29.241455 7.0755615,28.68628 7.0755615,28.68628 C7.0755615,28.68628 4.942688,27.876709 4.942688,27.876709 C4.942688,27.876709 6.0633545,25.866455 6.0633545,25.866455 C6.0633545,25.866455 6.829529,24.490479 6.829529,24.490479 C6.829529,24.490479 5.6466064,23.46167 5.6466064,23.46167 C5.6466064,23.46167 3.9135132,21.955322 3.9135132,21.955322 C3.9135132,21.955322 5.6483154,20.447266 5.6483154,20.447266 C5.6483154,20.447266 6.8303833,19.418701 6.8303833,19.418701 C6.8303833,19.418701 6.064209,18.043701 6.064209,18.043701 C6.064209,18.043701 4.9435425,16.033203 4.9435425,16.033203 C4.9435425,16.033203 7.078186,15.222046 7.078186,15.222046 C7.078186,15.222046 8.537109,14.66687 8.537109,14.66687 C8.537109,14.66687 8.283325,13.108765 8.283325,13.108765 C8.283325,13.108765 7.911743,10.82605 7.911743,10.82605 C7.911743,10.82605 10.193237,10.803589 10.193237,10.803589 C10.193237,10.803589 11.752869,10.787231 11.752869,10.787231 C11.752869,10.787231 12.038208,9.232788 12.038208,9.232788 C12.038208,9.232788 12.455078,6.9593506 12.455078,6.9593506 C12.455078,6.9593506 14.605835,7.7261963 14.605835,7.7261963 C14.605835,7.7261963 16.074097,8.24939 16.074097,8.24939 C16.074097,8.24939 16.86676,6.892456 16.86676,6.892456 C16.86676,6.892456 18.027466,4.9039307 18.027466,4.9039307 C18.027466,4.9039307 19.788818,6.3740234 19.788818,6.3740234 C19.788818,6.3740234 20.994019,7.3792725 20.994019,7.3792725 C20.994019,7.3792725 22.19934,6.3740234 22.19934,6.3740234 C22.19934,6.3740234 23.961365,4.9039307 23.961365,4.9039307 C23.961365,4.9039307 25.123108,6.8933105 25.123108,6.8933105 C25.123108,6.8933105 25.91571,8.250244 25.91571,8.250244 C25.91571,8.250244 27.383972,7.727417 27.383972,7.727417 C27.383972,7.727417 29.535583,6.960327 29.535583,6.960327 C29.535583,6.960327 29.95166,9.234009 29.95166,9.234009 C29.95166,9.234009 30.236938,10.787964 30.236938,10.787964 C30.236938,10.787964 31.79657,10.804565 31.79657,10.804565 C31.79657,10.804565 34.078857,10.828003 34.078857,10.828003 C34.078857,10.828003 33.707336,13.109497 33.707336,13.109497 C33.707336,13.109497 33.452698,14.668701 33.452698,14.668701 C33.452698,14.668701 34.91162,15.222778 34.91162,15.222778 C34.91162,15.222778 37.04541,16.033936 37.04541,16.033936 C37.04541,16.033936 35.92462,18.045166 35.92462,18.045166 C35.92462,18.045166 35.15851,19.421387 35.15851,19.421387 C35.15851,19.421387 36.34149,20.449951 36.34149,20.449951 C36.34149,20.449951 38.074585,21.954346 38.074585,21.954346 C38.074585,21.954346 36.340637,23.464355 36.340637,23.464355 C36.340637,23.464355 35.157654,24.492188 35.157654,24.492188 C35.157654,24.492188 35.92383,25.867188 35.92383,25.867188 C35.92383,25.867188 37.044495,27.877686 37.044495,27.877686 C37.044495,27.877686 34.910767,28.690918 34.910767,28.690918 Z"/>
</svg>